<svg xmlns="http://www.w3.org/2000/svg" width="400" height="400" viewBox="0 0 400 400">
  <rect width="400" height="400" rx="20" fill="#f1f5f9"/>
  <rect x="130" y="60" width="140" height="180" rx="12" fill="#e2e8f0" stroke="#94a3b8" stroke-width="3"/>
  <rect x="150" y="80" width="100" height="24" rx="4" fill="#94a3b8"/>
  <text x="200" y="97" text-anchor="middle" fill="#fff" font-size="13" font-weight="700" font-family="system-ui,sans-serif">ZIP</text>
  <rect x="150" y="112" width="100" height="8" rx="3" fill="#cbd5e1"/>
  <rect x="150" y="128" width="80" height="8" rx="3" fill="#cbd5e1"/>
  <rect x="150" y="144" width="90" height="8" rx="3" fill="#cbd5e1"/>
  <rect x="150" y="160" width="70" height="8" rx="3" fill="#cbd5e1"/>
  <rect x="150" y="176" width="85" height="8" rx="3" fill="#cbd5e1"/>
  <!-- zipper -->
  <rect x="195" y="80" width="10" height="160" fill="#64748b" opacity=".3" rx="2"/>
  <circle cx="200" cy="200" r="8" fill="#64748b"/>
  <!-- download icon -->
  <g transform="translate(200,290)">
    <circle r="32" fill="#6366f1" opacity=".12"/>
    <path d="M0,-14 L0,10 M-9,2 L0,12 L9,2" fill="none" stroke="#6366f1" stroke-width="3" stroke-linecap="round" stroke-linejoin="round"/>
    <path d="M-12,16 L12,16" fill="none" stroke="#6366f1" stroke-width="3" stroke-linecap="round"/>
  </g>
  <text x="200" y="348" text-anchor="middle" fill="#64748b" font-size="14" font-weight="700" font-family="system-ui,sans-serif">双击预览窗口下载</text>
</svg>
